<svg width="50" height="50" xmlns="http://www.w3.org/2000/svg" viewBox="0 0 50 50">
  <path fill="#7957CC" d="M 35.9637,46.3383C 35.2899,46.6109 34.4735,46.8293 33.5147,46.9935C 32.5558,47.1577 31.5706,47.242 30.5589,47.2463C 27.6868,47.2162 25.4612,46.3994 23.8821,44.7958C 22.3031,43.1922 21.5026,40.9045 21.4807,37.9327L 21.4807,21.2337L 17.3999,21.2337L 17.3999,18.1871C 18.8701,17.8019 20.0827,17.2318 21.0376,16.4769C 22.0014,15.7175 22.7603,14.7732 23.3143,13.644C 23.8773,12.5148 24.2586,11.1733 24.4582,9.61945L 27.7925,9.61945L 27.7925,17.3952L 35.9637,17.3952L 35.9637,21.2337L 27.7925,21.2337L 27.7925,36.9397C 27.7925,38.8197 28.1519,40.2043 28.8708,41.0934C 29.5986,41.978 30.6996,42.4203 32.1739,42.4203C 32.8839,42.4203 33.6248,42.3099 34.3967,42.0891C 35.1686,41.8683 35.7471,41.6455 36.1329,41.4205L 35.9637,46.3383 Z"/>
  <path fill="#7957cc" fill-opacity="1" stroke-width="0.2" stroke-linejoin="round" d="M 48.0013,40.8762L 48.6769,35.7567L 52.5194,35.7567L 51.886,40.8762L 48.0013,40.8762 Z M 46.3123,52.2234L 47.3679,44.6234L 51.2104,44.6234L 50.1125,52.2234L 53.9128,52.2234L 54.9684,44.6234L 59.1064,44.6234L 59.1064,40.8762L 55.644,40.8762L 56.2774,35.7567L 60.2887,35.7567L 60.2887,32.0095L 56.9107,32.0095L 57.9664,24.8317L 54.2084,24.8317L 53.1527,32.0095L 49.2681,32.0095L 50.3237,24.8317L 46.6079,24.8317L 45.51,32.0095L 41.372,32.0095L 41.372,35.7567L 44.9189,35.7567L 44.2433,40.8762L 40.1475,40.8762L 40.1475,44.6234L 43.6099,44.6234L 42.5121,52.2234L 46.3123,52.2234 Z"/>
</svg>
